<?xml version="1.0" standalone="no"?>
<!DOCTYPE svg PUBLIC "-//W3C//DTD SVG 20010904//EN"
 "http://www.w3.org/TR/2001/REC-SVG-20010904/DTD/svg10.dtd">
<svg version="1.0" xmlns="http://www.w3.org/2000/svg"
 width="3543.000000pt" height="1388.000000pt" viewBox="0 0 3543.000000 1388.000000"
 preserveAspectRatio="xMidYMid meet">

<g transform="translate(0.000000,1388.000000) scale(0.100000,-0.100000)"
fill="#000000" stroke="none">
<path d="M3807 10140 c-19 -23 -22 -40 -7 -40 16 0 14 -2037 -2 -2043 -9 -4
-10 -8 -2 -14 6 -4 13 -16 17 -26 6 -16 25 -17 254 -15 l248 3 0 1075 0 1075
-245 3 c-236 2 -246 2 -263 -18z"/>
<path d="M6312 10148 c-9 -9 -12 -260 -12 -1067 0 -581 4 -1062 8 -1069 7 -9
65 -12 258 -10 l249 3 5 890 c4 631 8 890 16 890 6 0 46 -47 90 -105 44 -58
109 -143 145 -190 116 -151 694 -906 916 -1197 144 -188 205 -258 244 -278 35
-19 488 -21 571 -4 105 23 193 90 236 181 l22 48 -2 957 -3 958 -260 3 c-238
2 -261 1 -273 -15 -10 -14 -12 -199 -12 -896 1 -484 -2 -882 -6 -886 -3 -3
-14 5 -22 18 -19 28 -110 152 -608 826 -195 264 -418 568 -497 675 -155 212
-193 247 -299 269 -72 16 -750 15 -766 -1z"/>
<path d="M11364 10150 c-168 -25 -298 -114 -344 -236 -20 -54 -20 -74 -20
-969 0 -502 3 -920 6 -929 5 -14 37 -16 255 -16 137 0 250 1 251 3 2 1 5 220
8 487 l5 485 805 5 805 5 3 104 c2 67 -1 108 -9 117 -10 12 -139 14 -810 14
l-799 0 0 309 c0 289 1 310 19 332 l19 24 889 5 888 5 0 130 0 130 -960 1
c-528 1 -983 -2 -1011 -6z"/>
<path d="M14965 10148 c-3 -7 -4 -492 -3 -1078 l3 -1065 244 -3 c171 -2 248 1
257 9 19 16 21 2118 2 2137 -18 18 -497 17 -503 0z"/>
<path d="M17445 10148 c-3 -7 -4 -492 -3 -1078 l3 -1065 255 0 255 0 5 889 c3
580 8 890 15 892 6 1 57 -61 115 -139 58 -77 132 -175 165 -217 33 -42 132
-171 219 -286 546 -716 763 -996 808 -1048 87 -99 76 -96 360 -96 255 0 323 7
391 42 54 27 115 92 143 151 l24 52 0 951 c0 859 -2 952 -16 958 -9 3 -127 6
-263 6 -179 0 -250 -3 -259 -12 -9 -9 -12 -222 -12 -896 0 -702 -3 -883 -12
-880 -14 5 -211 269 -1205 1619 -65 88 -78 100 -139 130 l-69 34 -387 3 c-312
2 -389 1 -393 -10z"/>
<path d="M22315 10148 c-3 -7 -4 -492 -3 -1078 l3 -1065 249 -3 c193 -2 251 1
258 10 4 7 8 488 8 1069 0 807 -3 1058 -12 1067 -18 18 -497 17 -503 0z"/>
<path d="M24781 10146 c-8 -9 -11 -52 -9 -127 l3 -114 539 -3 c378 -1 543 -6
553 -13 11 -9 13 -175 13 -938 0 -708 3 -930 12 -939 9 -9 78 -12 248 -12 170
0 239 3 248 12 9 9 12 232 12 944 0 841 2 932 16 938 9 3 256 6 549 6 477 0
534 2 539 16 11 30 7 219 -6 232 -9 9 -325 12 -1359 12 -1139 0 -1348 -2
-1358 -14z"/>
<path d="M29610 10150 c-115 -16 -194 -74 -244 -180 l-31 -65 -3 -827 -3 -827
25 -49 c28 -55 95 -121 155 -151 98 -50 112 -51 1154 -51 1136 0 1007 -17
1007 136 0 78 -3 98 -18 114 -18 19 -42 20 -905 22 l-887 3 -27 28 -28 27 -3
283 c-2 172 1 294 7 310 6 14 22 34 38 44 25 17 78 18 818 23 l790 5 0 120 0
120 -785 5 c-623 4 -790 8 -808 18 -13 7 -32 28 -42 45 -18 29 -20 52 -20 279
0 242 0 247 23 273 12 14 40 30 62 35 23 6 409 10 895 10 999 0 890 -16 890
130 0 146 129 130 -1020 129 -542 -1 -1010 -5 -1040 -9z"/>
<path d="M8971 6486 c-8 -10 -10 -397 -9 -1452 l3 -1439 8740 0 8740 0 0 1450
0 1450 -8731 3 c-7343 2 -8733 0 -8743 -12z m17257 -1440 c2 -977 0 -1231 -10
-1238 -7 -4 -3841 -8 -8519 -8 -7748 0 -8507 1 -8513 16 -8 22 -8 2449 1 2457
3 4 3838 6 8522 5 l8516 -3 3 -1229z"/>
<path d="M23896 5754 c-210 -42 -375 -151 -483 -320 -136 -213 -149 -534 -32
-771 79 -159 249 -286 438 -327 49 -11 123 -16 220 -16 199 0 339 28 456 90
l50 27 3 338 c2 241 -1 342 -9 351 -16 19 -568 21 -587 2 -8 -8 -12 -48 -12
-113 0 -65 4 -105 12 -113 8 -8 54 -12 139 -12 106 0 128 -3 133 -16 3 -9 6
-69 6 -135 l0 -120 -37 -16 c-97 -43 -277 -22 -378 42 -65 41 -101 84 -139
165 -30 63 -31 69 -31 215 0 163 10 207 66 290 114 170 302 226 569 170 36 -8
87 -23 114 -34 88 -38 86 -40 86 113 0 95 -4 136 -12 143 -73 52 -406 80 -572
47z"/>
<path d="M10882 5742 c-10 -7 -12 -154 -10 -703 l3 -694 404 -3 c247 -1 408 1
414 7 11 11 12 225 2 241 -4 6 -102 10 -249 10 -196 0 -246 3 -255 14 -9 10
-11 162 -11 566 1 447 -1 555 -12 561 -17 11 -269 11 -286 1z"/>
<path d="M12462 5742 c-10 -7 -12 -154 -10 -703 l3 -694 409 -3 c293 -1 413 1
422 9 19 15 20 208 2 232 -12 15 -42 17 -263 19 l-250 3 0 155 0 155 214 3
c138 1 219 6 228 13 9 8 13 42 13 120 0 99 -2 109 -20 119 -13 7 -93 10 -221
9 -115 -1 -205 3 -210 8 -5 5 -8 72 -7 154 l3 144 240 5 240 5 3 119 c2 89 -1
121 -10 128 -17 10 -769 10 -786 0z"/>
<path d="M14436 5728 c-8 -13 -31 -68 -51 -123 -20 -55 -43 -118 -52 -140 -22
-58 -37 -99 -73 -200 -17 -49 -38 -106 -45 -125 -8 -19 -34 -91 -59 -160 -24
-69 -68 -188 -97 -265 -28 -77 -55 -151 -59 -165 -5 -14 -22 -63 -39 -109 -17
-46 -28 -88 -25 -92 9 -15 320 -11 331 4 6 6 21 47 33 90 13 43 33 106 45 140
l21 62 247 3 246 2 14 -27 c8 -16 24 -62 37 -103 12 -41 30 -97 40 -125 l18
-50 163 -3 c171 -3 189 2 167 41 -6 11 -14 32 -18 46 -4 14 -29 85 -55 156
-67 188 -105 294 -120 340 -7 22 -27 78 -45 125 -17 47 -42 117 -55 155 -13
39 -31 88 -39 110 -41 111 -110 305 -122 344 -30 95 -21 91 -219 91 -170 0
-175 -1 -189 -22z m203 -333 c1 -19 108 -361 137 -438 8 -21 12 -43 9 -48 -8
-13 -345 -12 -345 1 0 6 18 63 39 128 21 64 56 171 76 237 21 66 45 133 53
150 14 28 16 28 23 10 4 -11 8 -29 8 -40z"/>
<path d="M16052 5738 c-9 -12 -12 -172 -10 -704 l3 -689 155 0 155 0 3 262 2
263 25 6 c14 3 47 3 73 -1 41 -6 54 -14 100 -63 31 -33 105 -142 176 -262
l124 -205 168 -3 c96 -1 172 2 177 7 6 6 -21 57 -73 138 -45 70 -99 154 -119
187 -67 108 -156 220 -201 254 -53 40 -58 50 -33 58 92 31 182 101 227 178
114 194 46 447 -141 527 -109 47 -144 51 -478 56 -275 5 -322 3 -333 -9z m573
-252 c57 -26 80 -55 94 -118 19 -82 -21 -173 -97 -220 -32 -20 -50 -22 -147
-23 l-110 0 -3 180 c-1 98 0 185 2 192 4 9 34 13 108 13 87 0 111 -4 153 -24z"/>
<path d="M17922 5742 c-10 -7 -12 -154 -10 -703 l3 -694 125 -3 c69 -1 135 0
148 3 l23 6 -1 474 c-1 261 2 476 6 477 10 2 16 -7 169 -242 148 -227 325
-496 410 -625 l60 -90 140 -3 c77 -1 150 0 163 3 l22 5 0 690 c0 671 -1 690
-19 700 -23 12 -250 13 -269 2 -10 -7 -13 -103 -12 -465 0 -398 -2 -457 -14
-457 -9 0 -21 10 -27 23 -6 12 -35 58 -64 102 -67 104 -161 247 -267 410 -46
72 -120 184 -163 250 -42 66 -84 126 -93 133 -18 14 -308 17 -330 4z"/>
<path d="M19953 5743 c-9 -3 -13 -37 -13 -118 0 -125 0 -125 70 -125 25 0 40
-5 44 -16 10 -26 7 -868 -3 -883 -5 -8 -31 -17 -58 -20 l-48 -6 0 -115 0 -115
250 -3 c138 -1 260 0 273 3 22 5 23 8 20 118 l-3 112 -45 3 c-24 2 -50 8 -57
14 -10 8 -13 106 -13 443 0 239 3 440 6 449 4 11 19 16 48 16 23 0 47 5 54 12
8 8 12 49 12 119 0 88 -3 108 -16 113 -19 7 -503 7 -521 -1z"/>
<path d="M21262 5742 c-10 -7 -12 -154 -10 -703 l3 -694 139 -3 c105 -2 142 1
148 10 5 7 8 222 7 478 -1 292 2 465 8 467 5 2 27 -25 48 -59 22 -35 103 -160
180 -278 78 -118 199 -303 270 -410 70 -107 133 -198 139 -202 6 -5 79 -7 161
-5 l150 2 0 700 0 700 -134 3 c-95 2 -138 -1 -148 -10 -13 -10 -15 -74 -12
-469 2 -252 1 -460 -3 -464 -3 -3 -16 11 -29 32 -21 34 -139 217 -417 643 -52
80 -110 170 -130 202 -21 31 -46 59 -57 62 -31 9 -298 7 -313 -2z"/>
</g>
</svg>
